HIERARCHY
ROOT Hips
{
	OFFSET 0.000000 83.214638 0.000000
	CHANNELS 6 Xposition Yposition Zposition Xrotation Yrotation Zrotation
	JOINT Pelvis
	{
		OFFSET 0.000000 0.000000 0.000000
		CHANNELS 3 Xrotation Yrotation Zrotation
		JOINT LeftUpLeg
		{
			OFFSET 8.479700 -4.795502 -0.379100
			CHANNELS 3 Xrotation Yrotation Zrotation
			JOINT LeftLeg
			{
				OFFSET 0.024144 -32.555107 0.112900
				CHANNELS 3 Xrotation Yrotation Zrotation
				JOINT LeftFoot
				{
					OFFSET -0.024144 -32.638630 -3.012600
					CHANNELS 3 Xrotation Yrotation Zrotation
					JOINT LeftToeBase
					{
						OFFSET 0.970200 -13.225400 11.864200
						CHANNELS 3 Xrotation Yrotation Zrotation
						End Site
						{
							OFFSET 0.000000 12.319262 0.000000
						}
					}
					JOINT LFootTongue
					{
						OFFSET 1.142400 -1.059800 6.665200
						CHANNELS 3 Xrotation Yrotation Zrotation
						End Site
						{
							OFFSET 0.000000 12.319262 0.000000
						}
					}
				}
				JOINT LeftPantLeg
				{
					OFFSET 0.918482 -16.533964 -2.284700
					CHANNELS 3 Xrotation Yrotation Zrotation
					End Site
					{
						OFFSET 0.350399 24.744368 0.000000
					}
				}
			}
		}
		JOINT RightUpLeg
		{
			OFFSET -8.479700 -4.795502 -0.379100
			CHANNELS 3 Xrotation Yrotation Zrotation
			JOINT RightLeg
			{
				OFFSET -0.023144 -32.555092 0.112900
				CHANNELS 3 Xrotation Yrotation Zrotation
				JOINT RightFoot
				{
					OFFSET 0.023144 -32.638641 -3.012700
					CHANNELS 3 Xrotation Yrotation Zrotation
					JOINT RightToeBase
					{
						OFFSET -0.970200 -13.225400 11.864200
						CHANNELS 3 Xrotation Yrotation Zrotation
						End Site
						{
							OFFSET 0.000000 12.319244 0.000000
						}
					}
					JOINT RFootTongue
					{
						OFFSET -1.142200 -1.059800 6.665200
						CHANNELS 3 Xrotation Yrotation Zrotation
						End Site
						{
							OFFSET 0.000000 12.319243 0.000000
						}
					}
				}
				JOINT RightPantLeg
				{
					OFFSET -0.919482 -16.533978 -2.284800
					CHANNELS 3 Xrotation Yrotation Zrotation
					End Site
					{
						OFFSET -0.350400 24.744419 0.000000
					}
				}
			}
		}
	}
	JOINT Spine
	{
		OFFSET 0.000000 7.722000 1.166200
		CHANNELS 3 Xrotation Yrotation Zrotation
		JOINT Spine1
		{
			OFFSET 0.000000 12.024101 0.248800
			CHANNELS 3 Xrotation Yrotation Zrotation
			JOINT Spine2
			{
				OFFSET 0.000000 11.502998 -0.491200
				CHANNELS 3 Xrotation Yrotation Zrotation
				JOINT Neck
				{
					OFFSET 0.000000 18.430702 -3.123100
					CHANNELS 3 Xrotation Yrotation Zrotation
					JOINT Head
					{
						OFFSET 0.000000 9.051102 1.034000
						CHANNELS 3 Xrotation Yrotation Zrotation
						JOINT HairB
						{
							OFFSET 0.208400 24.786102 24.822300
							CHANNELS 3 Xrotation Yrotation Zrotation
							End Site
							{
								OFFSET 0.000000 32.263779 0.000000
							}
						}
						JOINT HairA
						{
							OFFSET -7.081100 24.428299 23.196600
							CHANNELS 3 Xrotation Yrotation Zrotation
							End Site
							{
								OFFSET 0.000000 32.263779 0.000000
							}
						}
						JOINT Hat
						{
							OFFSET 16.728800 15.048294 -15.439601
							CHANNELS 3 Xrotation Yrotation Zrotation
							End Site
							{
								OFFSET 0.000000 32.263779 0.000000
							}
						}
					}
				}
				JOINT LeftShoulder
				{
					OFFSET 6.197800 13.665199 -4.064700
					CHANNELS 3 Xrotation Yrotation Zrotation
					JOINT LeftArm
					{
						OFFSET 7.778100 -0.187103 -1.709300
						CHANNELS 3 Xrotation Yrotation Zrotation
						JOINT LeftForeArm
						{
							OFFSET 22.049376 0.000000 0.000000
							CHANNELS 3 Xrotation Yrotation Zrotation
							JOINT LeftHand
							{
								OFFSET 23.009392 0.000000 0.000000
								CHANNELS 3 Xrotation Yrotation Zrotation
								JOINT LeftHandThumb1
								{
									OFFSET 3.507191 -2.063065 3.133727
									CHANNELS 3 Xrotation Yrotation Zrotation
									JOINT LeftHandThumb2
									{
										OFFSET 3.101337 -1.790558 1.790558
										CHANNELS 3 Xrotation Yrotation Zrotation
										JOINT LeftHandThumb3
										{
											OFFSET 3.058640 -1.765907 1.765906
											CHANNELS 3 Xrotation Yrotation Zrotation
											End Site
											{
												OFFSET -0.415260 3.926476 -0.049563
											}
										}
									}
								}
								JOINT LeftHandIndex1
								{
									OFFSET 11.334419 -0.901459 3.706815
									CHANNELS 3 Xrotation Yrotation Zrotation
									JOINT LeftHandIndex2
									{
										OFFSET 3.283112 0.000000 0.000000
										CHANNELS 3 Xrotation Yrotation Zrotation
										JOINT LeftHandIndex3
										{
											OFFSET 3.323853 0.000000 0.000000
											CHANNELS 3 Xrotation Yrotation Zrotation
											End Site
											{
												OFFSET -1.135597 3.097809 0.402452
											}
										}
									}
								}
								JOINT LeftHandMiddle1
								{
									OFFSET 11.335861 0.000000 0.000000
									CHANNELS 3 Xrotation Yrotation Zrotation
									JOINT LeftHandMiddle2
									{
										OFFSET 3.410492 0.000000 0.000000
										CHANNELS 3 Xrotation Yrotation Zrotation
										JOINT LeftHandMiddle3
										{
											OFFSET 3.312172 0.000000 0.000000
											CHANNELS 3 Xrotation Yrotation Zrotation
											End Site
											{
												OFFSET -1.150200 3.080154 0.400270
											}
										}
									}
								}
								JOINT LeftHandRing1
								{
									OFFSET 11.514786 -0.013176 -3.003090
									CHANNELS 3 Xrotation Yrotation Zrotation
									JOINT LeftHandRing2
									{
										OFFSET 3.053307 0.000000 0.000000
										CHANNELS 3 Xrotation Yrotation Zrotation
										JOINT LeftHandRing3
										{
											OFFSET 3.295807 0.000000 0.000000
											CHANNELS 3 Xrotation Yrotation Zrotation
											End Site
											{
												OFFSET -1.281006 3.013344 0.375733
											}
										}
									}
								}
								JOINT LeftHandPinky1
								{
									OFFSET 10.518692 -0.960396 -5.730441
									CHANNELS 3 Xrotation Yrotation Zrotation
									JOINT LeftHandPinky2
									{
										OFFSET 2.861649 0.000000 0.000000
										CHANNELS 3 Xrotation Yrotation Zrotation
										JOINT LeftHandPinky3
										{
											OFFSET 2.863380 0.000000 0.000000
											CHANNELS 3 Xrotation Yrotation Zrotation
											End Site
											{
												OFFSET -0.843597 2.711159 0.369971
											}
										}
									}
								}
							}
							JOINT LSleeve
							{
								OFFSET 6.676277 -0.344902 -1.011730
								CHANNELS 3 Xrotation Yrotation Zrotation
								End Site
								{
									OFFSET 0.000000 14.885353 0.000000
								}
							}
						}
					}
				}
				JOINT RightShoulder
				{
					OFFSET -6.197800 13.665199 -4.064700
					CHANNELS 3 Xrotation Yrotation Zrotation
					JOINT RightArm
					{
						OFFSET -7.778100 -0.187103 -1.709300
						CHANNELS 3 Xrotation Yrotation Zrotation
						JOINT RightForeArm
						{
							OFFSET -22.049376 0.000000 0.000000
							CHANNELS 3 Xrotation Yrotation Zrotation
							JOINT RightHand
							{
								OFFSET -23.009392 0.000000 0.000000
								CHANNELS 3 Xrotation Yrotation Zrotation
								JOINT RightHandThumb1
								{
									OFFSET -3.507191 -2.063065 3.133727
									CHANNELS 3 Xrotation Yrotation Zrotation
									JOINT RightHandThumb2
									{
										OFFSET -3.101337 -1.790558 1.790558
										CHANNELS 3 Xrotation Yrotation Zrotation
										JOINT RightHandThumb3
										{
											OFFSET -3.058640 -1.765907 1.765906
											CHANNELS 3 Xrotation Yrotation Zrotation
											End Site
											{
												OFFSET 0.415260 3.926476 -0.049563
											}
										}
									}
								}
								JOINT RightHandIndex1
								{
									OFFSET -11.334419 -0.901459 3.706815
									CHANNELS 3 Xrotation Yrotation Zrotation
									JOINT RightHandIndex2
									{
										OFFSET -3.283112 0.000000 0.000000
										CHANNELS 3 Xrotation Yrotation Zrotation
										JOINT RightHandIndex3
										{
											OFFSET -3.323853 0.000000 0.000000
											CHANNELS 3 Xrotation Yrotation Zrotation
											End Site
											{
												OFFSET 1.135597 3.097809 0.402452
											}
										}
									}
								}
								JOINT RightHandMiddle1
								{
									OFFSET -11.335861 0.000000 0.000000
									CHANNELS 3 Xrotation Yrotation Zrotation
									JOINT RightHandMiddle2
									{
										OFFSET -3.410492 0.000000 0.000000
										CHANNELS 3 Xrotation Yrotation Zrotation
										JOINT RightHandMiddle3
										{
											OFFSET -3.312172 0.000000 0.000000
											CHANNELS 3 Xrotation Yrotation Zrotation
											End Site
											{
												OFFSET 1.150200 3.080154 0.400270
											}
										}
									}
								}
								JOINT RightHandRing1
								{
									OFFSET -11.514786 -0.013176 -3.003090
									CHANNELS 3 Xrotation Yrotation Zrotation
									JOINT RightHandRing2
									{
										OFFSET -3.053307 0.000000 0.000000
										CHANNELS 3 Xrotation Yrotation Zrotation
										JOINT RightHandRing3
										{
											OFFSET -3.295807 0.000000 0.000000
											CHANNELS 3 Xrotation Yrotation Zrotation
											End Site
											{
												OFFSET 1.281006 3.013344 0.375733
											}
										}
									}
								}
								JOINT RightHandPinky1
								{
									OFFSET -10.518692 -0.960396 -5.730441
									CHANNELS 3 Xrotation Yrotation Zrotation
									JOINT RightHandPinky2
									{
										OFFSET -2.861649 0.000000 0.000000
										CHANNELS 3 Xrotation Yrotation Zrotation
										JOINT RightHandPinky3
										{
											OFFSET -2.863380 0.000000 0.000000
											CHANNELS 3 Xrotation Yrotation Zrotation
											End Site
											{
												OFFSET 0.843597 2.711159 0.369971
											}
										}
									}
								}
							}
							JOINT RSleeve
							{
								OFFSET -6.676277 -0.344902 -1.011730
								CHANNELS 3 Xrotation Yrotation Zrotation
								End Site
								{
									OFFSET 0.000000 14.885353 0.000000
								}
							}
						}
					}
				}
				JOINT Backpack
				{
					OFFSET 0.000000 -2.471497 36.677502
					CHANNELS 3 Xrotation Yrotation Zrotation
					End Site
					{
						OFFSET 0.000000 20.427315 0.000000
					}
				}
				JOINT Hood
				{
					OFFSET 0.000000 18.754097 -10.431000
					CHANNELS 3 Xrotation Yrotation Zrotation
					JOINT Hood1
					{
						OFFSET 0.000000 -5.011002 -7.685901
						CHANNELS 3 Xrotation Yrotation Zrotation
						End Site
						{
							OFFSET 0.000000 9.175140 0.000000
						}
					}
				}
				JOINT LHoodieString
				{
					OFFSET 5.250500 16.397697 3.089900
					CHANNELS 3 Xrotation Yrotation Zrotation
					JOINT LHoodieString1
					{
						OFFSET 0.257700 -6.364304 3.694600
						CHANNELS 3 Xrotation Yrotation Zrotation
						JOINT LHoodieString2
						{
							OFFSET 0.000000 -9.643799 2.679100
							CHANNELS 3 Xrotation Yrotation Zrotation
							End Site
							{
								OFFSET 0.000000 10.009018 0.000000
							}
						}
					}
				}
				JOINT RHoodieString
				{
					OFFSET -5.250500 16.397697 3.089900
					CHANNELS 3 Xrotation Yrotation Zrotation
					JOINT RHoodieString1
					{
						OFFSET -0.257700 -6.364304 3.694600
						CHANNELS 3 Xrotation Yrotation Zrotation
						JOINT RHoodieString2
						{
							OFFSET 0.000000 -9.643799 2.679100
							CHANNELS 3 Xrotation Yrotation Zrotation
							End Site
							{
								OFFSET 0.000000 10.009018 0.000000
							}
						}
					}
				}
			}
			JOINT LBackpack_Strap
			{
				OFFSET 15.223200 -7.719803 -6.610900
				CHANNELS 3 Xrotation Yrotation Zrotation
				End Site
				{
					OFFSET 0.000000 16.040596 0.000000
				}
			}
			JOINT RBackpack_Strap
			{
				OFFSET -15.223000 -7.719803 -6.610900
				CHANNELS 3 Xrotation Yrotation Zrotation
				End Site
				{
					OFFSET 0.000000 16.040596 0.000000
				}
			}
		}
	}
	JOINT BoyFacialAnim_Joint
	{
		OFFSET 1.000000 -82.208099 -1.550900
		CHANNELS 3 Xrotation Yrotation Zrotation
		End Site
		{
			OFFSET 0.000000 30.012791 0.000000
		}
	}
}
MOTION
Frames: 4
Frame Time: 0.033333
0.250098 243.036316 0.339328 -7.649164 1.560212 -4.982132 0.000000 0.000000 -0.000000 7.574568 10.589253 18.456457 -0.459356 6.741813 0.385126 40.321496 -2.036203 -5.706936 -0.000000 -0.000000 -0.000000 -0.000000 -0.000000 -0.000000 0.000000 -0.000002 0.000001 10.172395 -21.079075 -6.486619 3.341221 7.331479 -0.515181 19.562181 0.828149 5.977244 -0.000001 0.000001 0.000000 -0.000001 0.000001 0.000000 -0.000000 -0.000001 -0.000000 7.476872 -2.519884 9.569458 -1.463200 -0.607248 -0.445230 -1.471369 -0.604958 -0.441990 -7.002747 3.308833 0.660097 -19.334910 6.461405 2.453624 -0.000001 -0.000000 -0.000001 -0.000001 -0.000000 -0.000001 -0.000001 -0.000000 -0.000001 -0.164345 3.861454 23.258527 -73.536754 -32.554830 21.915623 0.000010 -19.181698 -0.000002 2.398314 12.886014 31.677335 -7.526534 -9.388669 13.667444 8.680084 12.114620 -8.362310 -0.000002 -0.000001 -0.000002 -0.143204 1.109778 -7.367820 0.253249 1.705541 -16.891618 -0.000004 0.000000 -0.000002 1.891440 8.307995 -20.251434 1.687759 4.114815 -44.589428 0.000001 0.000002 -0.000001 6.964844 15.318286 -30.968074 0.536104 2.450178 -24.680378 -0.000001 0.000002 -0.000002 9.566551 24.801156 -23.628696 0.408844 2.152062 -21.512029 -0.000000 0.000001 0.000003 -0.000000 0.000000 0.000001 1.792027 -2.711895 -27.809194 -55.414138 28.743584 -27.042647 -0.000026 12.651418 0.000007 -33.115711 8.288594 -37.811333 -14.634049 10.596659 -11.166974 4.746819 -4.884805 0.215145 -0.000000 0.000001 -0.000001 -4.101106 7.370032 22.092699 0.431318 -1.959175 24.829213 -0.000000 0.000000 0.000004 -0.458245 -2.726446 30.956808 0.458666 -2.017205 25.617480 0.000001 0.000001 -0.000000 0.428310 -4.411232 39.344208 0.797552 -2.608239 34.000484 -0.000000 0.000000 0.000000 2.956603 -7.341470 41.176393 0.261358 -1.539732 19.266744 0.000001 0.000001 -0.000001 0.000001 -0.000001 0.000001 0.000000 -0.000000 0.000000 0.000000 -0.000000 0.000000 0.000000 -0.000000 0.000000 0.000000 -0.000000 0.000000 0.000000 -0.000000 -0.000000 0.000000 -0.000000 0.000000 0.000000 -0.000000 0.000000 0.000000 -0.000000 -0.000000 0.000000 -0.000000 0.000000 -0.000000 0.000000 -0.000000 -0.000000 0.000000 -0.000000 0.000000 0.000000 -0.000000 
0.097232 230.731812 -2.178000 -7.147404 -0.050128 -5.252577 -0.000000 -0.000000 -0.000001 -0.666706 9.158675 18.971967 11.585220 8.153287 0.406786 32.204718 -1.222685 -5.073568 -0.000001 -0.000001 0.000000 -0.000001 -0.000001 -0.000000 -0.000000 -0.000001 0.000000 5.463253 -21.183050 -6.577427 4.658810 8.876143 -0.257694 19.396050 1.319880 6.437664 0.000002 0.000001 0.000000 0.000002 0.000001 0.000000 0.000000 -0.000001 -0.000000 9.344957 -2.180938 9.148397 -1.143446 -0.484371 -0.574313 -1.154986 -0.476191 -0.559393 -7.377336 3.563996 0.276963 -18.576923 6.961012 2.851503 0.000001 0.000000 -0.000000 0.000001 0.000000 -0.000000 0.000001 0.000000 -0.000000 0.282399 0.679679 22.495250 -65.954308 -35.175758 24.212978 -0.000003 -20.729211 -0.000009 3.717535 11.962219 24.042206 -4.524894 -4.198981 13.577087 9.526003 14.324746 -8.555778 -0.000002 -0.000001 -0.000005 2.896831 3.973778 -11.502657 0.289401 1.820265 -18.066568 0.000001 0.000001 -0.000000 3.433716 11.415441 -22.865271 1.755062 4.181803 -45.519680 0.000001 0.000002 -0.000003 9.372231 17.770701 -34.019916 0.569848 2.522243 -25.458029 0.000001 0.000004 -0.000003 10.622349 25.795458 -25.057567 0.405822 2.144331 -21.430849 -0.000001 0.000004 -0.000003 0.000002 -0.000001 0.000000 1.551520 -2.228101 -27.446376 -54.109507 30.648493 -24.542437 -0.000010 15.898426 0.000014 -30.765279 7.833856 -37.563510 -16.609746 15.534014 -11.177103 0.293779 0.237121 -0.440558 -0.000001 0.000001 -0.000003 -2.511072 9.181775 12.678500 0.321359 -1.701646 21.388039 -0.000000 -0.000001 0.000003 -0.134764 -2.769977 22.552583 0.422556 -1.940164 24.571986 0.000001 0.000000 0.000001 0.528610 -4.378471 31.409530 0.724107 -2.496029 32.351338 -0.000001 -0.000000 0.000000 3.879166 -8.900772 36.944097 0.089124 -0.907724 11.215276 -0.000001 -0.000000 0.000000 -0.000001 -0.000001 0.000001 -0.000000 -0.000000 0.000000 -0.000000 -0.000000 0.000000 -0.000000 -0.000000 0.000000 -0.000000 -0.000000 0.000000 -0.000000 -0.000000 -0.000000 0.000000 -0.000000 -0.000000 -0.000000 -0.000000 0.000000 -0.000000 -0.000000 -0.000000 0.000000 -0.000000 -0.000000 0.000000 0.000000 -0.000000 0.000000 0.000000 -0.000000 -0.000000 -0.000000 -0.000001 
-0.091589 217.622437 -4.738818 -6.733177 -1.318036 -5.415237 0.000000 0.000000 0.000000 -7.597765 8.171857 19.558172 20.616262 8.545214 -0.119802 25.793166 -0.452192 -4.313226 0.000000 0.000001 -0.000001 0.000000 0.000001 -0.000000 -0.000000 -0.000001 0.000000 -0.157370 -21.053503 -6.949960 8.156568 9.919811 -0.017139 17.510238 2.620229 6.511166 -0.000000 0.000000 0.000000 -0.000000 0.000000 0.000000 -0.000000 0.000000 0.000000 10.849237 -1.890303 8.179887 -0.576818 -0.393162 -0.593083 -0.588731 -0.377232 -0.571282 -6.631085 3.736396 -0.511151 -18.567680 6.933912 3.101059 0.000001 -0.000000 -0.000000 0.000001 -0.000000 -0.000000 0.000001 -0.000000 -0.000000 0.468392 -0.783557 23.726148 -54.833326 -37.855483 24.969862 -0.000000 -23.718496 -0.000009 7.603710 10.421420 16.017386 -4.487091 -4.633598 14.416649 11.067272 18.258228 -8.701501 -0.000001 0.000000 0.000002 2.231793 4.518708 -16.095614 0.352787 2.004060 -19.965676 -0.000001 -0.000001 -0.000004 3.883892 11.512117 -25.748061 1.801461 4.226745 -46.152237 -0.000001 -0.000006 -0.000001 9.238300 16.774967 -35.929315 0.610428 2.605739 -26.365799 0.000002 0.000001 0.000001 11.169571 25.064359 -27.161258 0.399341 2.127743 -21.256940 -0.000001 0.000001 -0.000002 0.000001 -0.000000 -0.000000 0.367781 -4.838157 -27.357518 -51.202834 35.034987 -20.380465 -0.000020 21.195557 -0.000034 -25.304048 3.887858 -29.891333 -17.683705 18.271200 -11.067040 -0.954528 -0.015744 -1.543514 0.000000 -0.000001 0.000001 -1.206022 9.147560 6.655800 0.280500 -1.593429 19.966928 -0.000000 0.000002 0.000002 0.015223 -2.820833 15.972128 0.445132 -1.988749 25.230000 -0.000002 0.000000 -0.000000 0.425484 -4.136995 26.618328 0.704737 -2.465174 31.903284 0.000001 0.000000 0.000004 4.006114 -9.415193 34.694199 0.021683 -0.449349 5.524601 0.000000 -0.000001 0.000000 -0.000002 -0.000000 -0.000000 0.000000 -0.000000 -0.000000 0.000000 -0.000000 -0.000000 0.000000 -0.000000 -0.000000 0.000000 -0.000000 -0.000000 0.000000 -0.000000 -0.000000 -0.000000 -0.000000 -0.000000 0.000000 -0.000000 -0.000000 0.000000 -0.000000 -0.000000 -0.000000 -0.000000 -0.000000 -0.000000 -0.000000 -0.000000 -0.000000 -0.000000 -0.000000 0.000000 0.000000 0.000000 
-0.305210 203.699249 -7.210899 -6.177270 -2.227535 -5.588242 -0.000000 0.000000 0.000000 -14.496942 6.983836 20.383105 29.136983 8.316074 -0.998238 19.842506 0.248872 -3.664388 0.000000 0.000001 0.000001 0.000000 0.000001 0.000000 -0.000000 -0.000001 0.000000 -5.333777 -20.769934 -6.871590 11.133720 9.714822 -0.135425 16.034059 3.957666 6.817149 0.000002 0.000000 0.000000 0.000002 0.000000 0.000000 0.000000 -0.000001 -0.000000 11.543078 -1.940836 6.808981 0.160201 -0.403299 -0.579131 0.150521 -0.378116 -0.557691 -4.748465 3.664267 -1.068611 -18.896821 6.915917 3.251644 -0.000002 0.000000 0.000000 -0.000002 0.000000 0.000000 -0.000002 0.000000 0.000000 0.120956 -1.330608 23.789076 -39.926441 -42.139019 28.227811 -0.000012 -27.355666 -0.000015 13.101532 9.308921 10.045806 -5.517410 -7.188546 15.272675 13.237328 23.579311 -8.997321 -0.000001 -0.000000 -0.000001 0.184289 3.757774 -20.950340 0.388543 2.099824 -20.964525 -0.000000 -0.000002 -0.000006 3.237901 9.580854 -28.808734 1.746406 4.173317 -45.400940 0.000001 -0.000001 0.000000 6.885510 13.422718 -36.447372 0.589279 2.562618 -25.896329 -0.000000 0.000003 0.000000 10.560749 22.805238 -29.571915 0.372952 2.058695 -20.534817 -0.000003 0.000002 -0.000002 0.000000 -0.000001 0.000001 -0.862687 -6.862344 -26.846680 -44.855536 38.977185 -19.022674 -0.000003 28.583590 -0.000021 -20.652812 1.691198 -25.541409 -18.351957 19.275919 -10.379950 -0.446623 0.404810 -2.295095 -0.000001 -0.000005 -0.000001 -0.821378 8.066724 5.177069 0.297418 -1.639149 20.565607 -0.000002 -0.000002 -0.000000 -0.052444 -2.344581 12.591075 0.491347 -2.083958 26.531245 -0.000000 0.000001 0.000002 0.632711 -4.624305 22.263724 0.679677 -2.424514 31.316322 0.000001 0.000000 0.000000 3.569744 -9.195306 32.105714 0.001947 -0.135039 1.658202 -0.000000 -0.000001 -0.000002 -0.000002 0.000000 -0.000002 0.000000 0.000000 0.000000 0.000000 0.000000 0.000000 0.000000 0.000000 0.000000 0.000000 0.000000 0.000000 0.000000 0.000000 0.000000 0.000000 0.000000 0.000000 0.000000 0.000000 0.000000 0.000000 0.000000 0.000000 0.000000 0.000000 0.000000 -0.000000 -0.000000 0.000000 -0.000000 -0.000000 0.000000 -0.000000 0.000000 0.000000 
